<?xml version="1.0" encoding="UTF-8" standalone="no"?>
<!-- Created with Inkscape (http://www.inkscape.org/) -->

<svg width="76.031563" height="62.48291" viewBox="0 0 20.116684 16.531937" xml:space="preserve" xmlns="http://www.w3.org/2000/svg" xmlns:svg="http://www.w3.org/2000/svg">
     <g inkscape:label="Camada 1" inkscape:groupmode="layer" id="layer1" transform="translate(-164.56313,81.403992)">
     <path style="fill:#64748b;fill-opacity:1;stroke-width:0.0300257" d="m 180.43175,-64.88099 c -0.36566,-0.06899 -0.66398,-0.249151 -0.80235,-0.484554 -0.0801,-0.136196 -0.0834,-0.158121 -0.0834,-0.547228 0,-0.37233 0.006,-0.417572 0.0751,-0.555432 0.0892,-0.178415 0.23489,-0.285288 0.38882,-0.285288 0.0603,0 0.22385,0.0335 0.36337,0.07443 0.40597,0.119122 0.43179,0.110824 0.58091,-0.186763 0.18333,-0.365855 0.22351,-0.859647 0.11287,-1.387084 -0.0587,-0.279847 -0.27442,-1.137811 -0.93659,-3.72506 -1.13342,-4.428455 -1.13393,-4.430482 -1.15605,-4.607575 -0.0256,-0.204914 0.0319,-0.484743 0.12512,-0.608453 0.10717,-0.142275 0.23787,-0.165861 0.85271,-0.153875 0.52187,0.01017 0.53081,0.01146 0.65658,0.09473 0.0938,0.06213 0.15072,0.133486 0.21542,0.27023 0.0483,0.102198 0.0879,0.202124 0.0879,0.22206 3e-5,0.03458 0.65813,3.046192 0.72039,3.296607 0.0164,0.06606 0.11185,0.498426 0.21207,0.960822 0.19297,0.890395 0.20856,0.956007 0.22346,0.940566 0.005,-0.0053 0.16007,-0.840731 0.34417,-1.85635 0.59366,-3.274934 0.62719,-3.445937 0.70644,-3.60232 0.14427,-0.284705 0.2962,-0.341363 0.87508,-0.32634 0.45079,0.0117 0.51801,0.03879 0.62659,0.252449 0.0822,0.16171 0.0788,0.608561 -0.008,1.018936 -0.0348,0.165142 -0.13244,0.658314 -0.21694,1.095939 -0.32178,1.66645 -0.49293,2.550261 -1.02039,5.269511 -0.064,0.330282 -0.15913,0.823454 -0.21125,1.095938 -0.0521,0.272483 -0.14151,0.731877 -0.19864,1.020874 -0.32394,1.63854 -0.68629,2.303319 -1.42812,2.620074 -0.20574,0.08784 -0.24574,0.09428 -0.62514,0.100579 -0.22295,0.0037 -0.43913,3.6e-4 -0.48042,-0.0074 z m -14.32226,-2.442347 c -0.12254,-0.0301 -0.27001,-0.186502 -0.33204,-0.352157 -0.0362,-0.09658 -0.0438,-0.953029 -0.0505,-5.638606 -0.005,-3.038602 -0.0139,-5.540909 -0.0213,-5.560681 -0.01,-0.02632 -0.0842,-0.01637 -0.27769,0.03716 -0.47018,0.130072 -0.6594,0.08571 -0.79313,-0.185935 -0.0679,-0.137932 -0.0717,-0.175435 -0.0717,-0.716043 0,-0.856044 0.0448,-0.933431 0.63106,-1.09091 1.54752,-0.415661 2.10457,-0.550944 2.21023,-0.536772 0.14031,0.01883 0.2807,0.115797 0.34939,0.241359 0.049,0.08955 0.0521,0.489027 0.0521,6.715885 v 6.620668 l -0.0787,0.16786 c -0.0466,0.09917 -0.12023,0.197462 -0.18016,0.240205 -0.0985,0.07026 -0.11913,0.07251 -0.71697,0.07807 -0.33854,0.0032 -0.66281,-0.0059 -0.72061,-0.02009 z m 4.68955,10e-4 c -0.21801,-0.05446 -0.34787,-0.26348 -0.39444,-0.634865 -0.0209,-0.166522 -0.0315,-2.05062 -0.0315,-5.600612 v -5.349671 l -0.29276,0.07466 c -0.35206,0.08979 -0.54237,0.08278 -0.65689,-0.0242 -0.15675,-0.146437 -0.17372,-0.215558 -0.18602,-0.757945 -0.0171,-0.75276 0.0186,-0.915347 0.23667,-1.07676 0.0853,-0.06314 2.38938,-0.684221 2.5354,-0.68343 0.17415,9.28e-4 0.33042,0.09982 0.40852,0.258489 l 0.0719,0.146027 0.009,6.440514 c 0.006,4.542471 -7.7e-4,6.49803 -0.0241,6.635681 -0.0445,0.265577 -0.13039,0.433561 -0.26427,0.516811 -0.10453,0.065 -0.14275,0.069 -0.71098,0.07443 -0.33028,0.0032 -0.64531,-0.0054 -0.70006,-0.01913 z m 5.89451,0.0082 c -0.36759,-0.05162 -0.76063,-0.248302 -1.02547,-0.513143 -0.32569,-0.325688 -0.51886,-0.79802 -0.64759,-1.583428 -0.0614,-0.374886 -0.0644,-0.504109 -0.0757,-3.265295 l -0.0118,-2.874961 -0.24569,-6.37e-4 c -0.35363,-9.28e-4 -0.47826,-0.06314 -0.58351,-0.29118 -0.0752,-0.162959 -0.0801,-0.200148 -0.0797,-0.608932 3.6e-4,-0.375253 0.009,-0.45403 0.0623,-0.570488 0.11702,-0.255659 0.25932,-0.328188 0.64664,-0.329566 l 0.20132,-7.35e-4 0.0152,-0.09758 c 0.008,-0.05367 0.0296,-0.421861 0.0472,-0.8182 0.0794,-1.784884 0.12241,-2.542808 0.15213,-2.68139 0.0203,-0.09464 0.0701,-0.193872 0.13598,-0.270812 0.13461,-0.157247 0.31167,-0.197391 0.79223,-0.179612 0.36126,0.01336 0.43609,0.03521 0.57975,0.169232 0.16739,0.156162 0.17195,0.21247 0.17195,2.127314 v 1.751054 l 0.53295,1.81e-4 c 0.59019,1.8e-4 0.70941,0.02072 0.82582,0.142264 0.15524,0.162073 0.1835,0.281364 0.1841,0.776986 4.8e-4,0.424761 -0.005,0.463328 -0.0738,0.598482 -0.054,0.104848 -0.11043,0.163548 -0.20594,0.214053 -0.12418,0.06565 -0.16355,0.06958 -0.6989,0.06958 h -0.56731 l 0.0111,2.844936 c 0.0101,2.583415 0.016,2.865636 0.0639,3.070128 0.0729,0.311557 0.1862,0.555332 0.27722,0.596805 0.044,0.02005 0.25315,0.03381 0.51551,0.0339 0.47563,1.81e-4 0.64174,0.02896 0.75208,0.13032 0.15272,0.140288 0.1698,0.211784 0.16971,0.710233 -8e-5,0.532668 -0.0262,0.627401 -0.212,0.769204 l -0.11338,0.08653 -0.75305,0.0037 c -0.41418,0.0021 -0.79359,-0.0019 -0.84313,-0.0089 z" id="path3570" sodipodi:nodetypes="sssssssssssssssssssssssssssscssccccsssssssccssccssscsssssscccscsscssscssssccsscsssscssscsscccssssscccc" inkscape:export-filename="eleventy_logo.svg" inkscape:export-xdpi="96" inkscape:export-ydpi="96" /></g>
</svg>
