<?xml version="1.0" encoding="UTF-8" standalone="no"?>
<!-- Created with Inkscape (http://www.inkscape.org/) -->

<svg width="318.72324" height="46.71133" viewBox="0 0 84.328855 12.359039" xml:space="preserve" xmlns="http://www.w3.org/2000/svg" xmlns:svg="http://www.w3.org/2000/svg">
    <g transform="translate(-193.45554,79.940613)">
      <g style="fill:#64748b;fill-opacity:1" id="g3160" ransform="matrix(0.43773552,0,0,0.43773552,163.39011,-80.360824)" inkscape:export-filename="tailwindcss_logo.svg" inkscape:export-xdpi="96" inkscape:export-ydpi="96">
        <path fill-rule="evenodd" clip-rule="evenodd" d="m 80.996,13.652 h -4.712 v 9.12 c 0,2.432 1.596,2.394 4.712,2.242 V 28.7 C 74.688,29.46 72.18,27.712 72.18,22.772 v -9.12 H 68.684 V 9.69996 h 3.496 v -5.104 l 4.104,-1.216 v 6.32 h 4.712 z M 98.958,9.69996 h 4.104 V 28.7 h -4.104 v -2.736 c -1.444,2.014 -3.686,3.23 -6.65,3.23 -5.168,0 -9.462,-4.37 -9.462,-9.994 0,-5.662 4.294,-9.99404 9.462,-9.99404 2.964,0 5.206,1.21604 6.65,3.19204 z M 92.954,25.28 c 3.42,0 6.004,-2.546 6.004,-6.08 0,-3.534 -2.584,-6.08 -6.004,-6.08 -3.42,0 -6.004,2.546 -6.004,6.08 0,3.534 2.584,6.08 6.004,6.08 z M 109.902,6.84996 c -1.444,0 -2.622,-1.216 -2.622,-2.622 0.001,-0.69499 0.278,-1.36114 0.769,-1.85257 0.492,-0.49144 1.158,-0.76811 1.853,-0.76943 0.695,0.00132 1.361,0.27799 1.853,0.76943 0.491,0.49143 0.768,1.15758 0.769,1.85257 0,1.406 -1.178,2.622 -2.622,2.622 z M 107.85,28.7 V 9.69996 h 4.104 V 28.7 Z m 8.854,0 V 0.959961 h 4.104 V 28.7 Z M 147.446,9.69996 h 4.332 L 145.812,28.7 h -4.028 l -3.952,-12.806 -3.99,12.806 h -4.028 L 123.848,9.69996 h 4.332 l 3.686,13.11004 3.99,-13.11004 h 3.914 L 143.722,22.81 Z m 9.424,-2.85 c -1.444,0 -2.622,-1.216 -2.622,-2.622 0.001,-0.69499 0.278,-1.36114 0.769,-1.85257 0.492,-0.49144 1.158,-0.76811 1.853,-0.76943 0.695,0.00132 1.361,0.27799 1.853,0.76943 0.491,0.49143 0.768,1.15758 0.769,1.85257 0,1.406 -1.178,2.622 -2.622,2.622 z M 154.818,28.7 V 9.69996 h 4.104 V 28.7 Z M 173.666,9.20596 c 4.256,0 7.296,2.88804 7.296,7.82804 V 28.7 h -4.104 V 17.452 c 0,-2.888 -1.672,-4.408 -4.256,-4.408 -2.698,0 -4.826,1.596 -4.826,5.472 V 28.7 h -4.104 V 9.69996 h 4.104 V 12.132 c 1.254,-1.976 3.306,-2.92604 5.89,-2.92604 z m 26.752,-7.106 h 4.104 V 28.7 h -4.104 v -2.736 c -1.444,2.014 -3.686,3.23 -6.65,3.23 -5.168,0 -9.462,-4.37 -9.462,-9.994 0,-5.662 4.294,-9.99404 9.462,-9.99404 2.964,0 5.206,1.21604 6.65,3.19204 z M 194.414,25.28 c 3.42,0 6.004,-2.546 6.004,-6.08 0,-3.534 -2.584,-6.08 -6.004,-6.08 -3.42,0 -6.004,2.546 -6.004,6.08 0,3.534 2.584,6.08 6.004,6.08 z m 23.864,3.914 c -5.738,0 -10.032,-4.37 -10.032,-9.994 0,-5.662 4.294,-9.99404 10.032,-9.99404 3.724,0 6.954,1.93804 8.474,4.90204 l -3.534,2.052 c -0.836,-1.786 -2.698,-2.926 -4.978,-2.926 -3.344,0 -5.89,2.546 -5.89,5.966 0,3.42 2.546,5.966 5.89,5.966 2.28,0 4.142,-1.178 5.054,-2.926 l 3.534,2.014 c -1.596,3.002 -4.826,4.94 -8.55,4.94 z m 15.314,-14.25 c 0,3.458 10.222,1.368 10.222,8.398 0,3.8 -3.306,5.852 -7.41,5.852 -3.8,0 -6.536,-1.71 -7.752,-4.446 l 3.534,-2.052 c 0.608,1.71 2.128,2.736 4.218,2.736 1.824,0 3.23,-0.608 3.23,-2.128 0,-3.382 -10.222,-1.482 -10.222,-8.284 0,-3.572 3.078,-5.81404 6.954,-5.81404 3.116,0 5.7,1.44404 7.03,3.95204 l -3.458,1.938 c -0.684,-1.482 -2.014,-2.166 -3.572,-2.166 -1.482,0 -2.774,0.646 -2.774,2.014 z m 17.518,0 c 0,3.458 10.222,1.368 10.222,8.398 0,3.8 -3.306,5.852 -7.41,5.852 -3.8,0 -6.536,-1.71 -7.752,-4.446 l 3.534,-2.052 c 0.608,1.71 2.128,2.736 4.218,2.736 1.824,0 3.23,-0.608 3.23,-2.128 0,-3.382 -10.222,-1.482 -10.222,-8.284 0,-3.572 3.078,-5.81404 6.954,-5.81404 3.116,0 5.7,1.44404 7.03,3.95204 l -3.458,1.938 c -0.684,-1.482 -2.014,-2.166 -3.572,-2.166 -1.482,0 -2.774,0.646 -2.774,2.014 z" fill="#ffffff" id="path3150" style="fill:#64748b;fill-opacity:1" />
      </g>
    </g>
</svg>
